<?xml version="1.0" encoding="UTF-8"?>
<svg width="34px" height="34px" viewBox="0 0 34 34" version="1.1" xmlns="http://www.w3.org/2000/svg" xmlns:xlink="http://www.w3.org/1999/xlink">
    <title>Combined Shape</title>
    <desc>Created with Sketch.</desc>
    <defs></defs>
    <g id="Desktop" stroke="none" stroke-width="1" fill="none" fill-rule="evenodd">
        <g id="Desktop-Wireframe-Copy-8" transform="translate(-386.000000, -368.000000)" fill="#FFFFFF">
            <path d="M413.389831,391.45785 L419.697592,397.765611 C420.088116,398.156136 420.088116,398.789301 419.697592,399.179825 L417.929825,400.947592 C417.539301,401.338116 416.906136,401.338116 416.515611,400.947592 L410.321098,394.753078 C407.761461,396.785791 404.522527,398 401,398 C392.715729,398 386,391.284271 386,383 C386,374.715729 392.715729,368 401,368 C409.284271,368 416,374.715729 416,383 C416,386.137466 415.036742,389.049951 413.389831,391.45785 Z M401,394 C407.075132,394 412,389.075132 412,383 C412,376.924868 407.075132,372 401,372 C394.924868,372 390,376.924868 390,383 C390,389.075132 394.924868,394 401,394 Z" id="Combined-Shape"></path>
        </g>
    </g>
</svg>